<svg xmlns="http://www.w3.org/2000/svg" xmlns:xlink="http://www.w3.org/1999/xlink" width="86" height="86" viewBox="0 0 86 86"><defs><style>.a{fill:#fff;}.b{fill:none;}.c{mix-blend-mode:multiply;isolation:isolate;}.d{fill:#121212;}.e{fill:rgba(255,255,255,0.09);}.f{clip-path:url(#g);}.g{fill:#bb86fc;}.h{fill:rgba(18,18,18,0);}.i{fill:rgba(0,0,0,0.87);}.j{filter:url(#e);}.k{filter:url(#c);}.l{filter:url(#a);}</style><filter id="a" x="9" y="10" width="68" height="68" filterUnits="userSpaceOnUse"><feOffset dy="2" input="SourceAlpha"/><feGaussianBlur stdDeviation="2" result="b"/><feFlood flood-opacity="0.2"/><feComposite operator="in" in2="b"/><feComposite in="SourceGraphic"/></filter><filter id="c" x="0" y="0" width="86" height="86" filterUnits="userSpaceOnUse"><feOffset dy="1" input="SourceAlpha"/><feGaussianBlur stdDeviation="5" result="d"/><feFlood flood-opacity="0.122"/><feComposite operator="in" in2="d"/><feComposite in="SourceGraphic"/></filter><filter id="e" x="7.5" y="10.5" width="71" height="71" filterUnits="userSpaceOnUse"><feOffset dy="4" input="SourceAlpha"/><feGaussianBlur stdDeviation="2.5" result="f"/><feFlood flood-opacity="0.141"/><feComposite operator="in" in2="f"/><feComposite in="SourceGraphic"/></filter><clipPath id="g"><circle class="a" cx="28" cy="28" r="28"/></clipPath></defs><g transform="translate(15 14)"><g class="c"><g class="l" transform="matrix(1, 0, 0, 1, -15, -14)"><rect class="a" width="56" height="56" rx="28" transform="translate(15 14)"/></g><g class="k" transform="matrix(1, 0, 0, 1, -15, -14)"><rect class="a" width="56" height="56" rx="28" transform="translate(15 14)"/></g><g class="j" transform="matrix(1, 0, 0, 1, -15, -14)"><rect class="a" width="56" height="56" rx="28" transform="translate(15 14)"/></g></g><rect class="d" width="56" height="56" rx="28"/><rect class="e" width="56" height="56" rx="28"/><g class="f"><rect class="g" width="56" height="56"/></g><g class="f"><rect class="g" width="56" height="56" rx="28"/><rect class="h" width="56" height="56" rx="28"/></g><g transform="translate(16 16)"><rect class="b" width="24" height="24"/><path class="i" d="M14,8H8v6H6V8H0V6H6V0H8V6h6Z" transform="translate(5 5)"/></g></g></svg>