<svg xmlns="http://www.w3.org/2000/svg" width="32" height="32" viewBox="0 0 32 32"><defs><style>.a{fill:none;}.b{fill:#bb86fc;}</style></defs><rect class="a" width="32" height="32"/><g transform="translate(5.333 1.333)"><path class="b" d="M22.667,17a8,8,0,1,1-8-8v5.333l6.667-6.667L14.667,1V6.333A10.667,10.667,0,1,0,25.333,17Z" transform="translate(-4 -1)"/><path class="b" d="M11.48,17.363V11.67h-.12L9,12.51v.92l1.347-.413v4.347Z" transform="translate(-2.333 2.557)"/><path class="b" d="M12.25,14.047v.987c0,2.533,1.747,2.427,1.92,2.427s1.92.12,1.92-2.427v-.987c0-2.533-1.747-2.427-1.92-2.427S12.25,11.5,12.25,14.047Zm2.72-.16V15.18c0,1.027-.28,1.373-.787,1.373s-.8-.347-.8-1.373V13.887c0-1,.293-1.347.787-1.347S14.97,12.887,14.97,13.887Z" transform="translate(-1.25 2.54)"/></g></svg>