<svg xmlns="http://www.w3.org/2000/svg" xmlns:xlink="http://www.w3.org/1999/xlink" width="48" height="48" viewBox="0 0 48 48"><defs><style>.a,.b,.f{fill:none;}.a,.b{stroke:rgba(255,255,255,0.12);stroke-miterlimit:10;}.b,.d{opacity:0;}.c{clip-path:url(#a);}.d{fill:#121212;}.e{fill:rgba(187,134,252,0.08);}.g{fill:#bb86fc;}.h{stroke:none;}</style><clipPath id="a"><path class="a" d="M4,0H48a0,0,0,0,1,0,0V48a0,0,0,0,1,0,0H4a4,4,0,0,1-4-4V4A4,4,0,0,1,4,0Z"/></clipPath></defs><g transform="translate(-111 -684)"><g transform="translate(111 684)"><g class="a"><path class="h" d="M4,0H48a0,0,0,0,1,0,0V48a0,0,0,0,1,0,0H4a4,4,0,0,1-4-4V4A4,4,0,0,1,4,0Z"/><path class="f" d="M4,.5H47a.5.5,0,0,1,.5.5V47a.5.5,0,0,1-.5.5H4A3.5,3.5,0,0,1,.5,44V4A3.5,3.5,0,0,1,4,.5Z"/></g><g class="b"><rect class="h" width="48" height="1"/><rect class="f" x="0.5" y="0.5" width="47"/></g><g class="b" transform="translate(0 47)"><rect class="h" width="48" height="1"/><rect class="f" x="0.5" y="0.5" width="47"/></g><g class="c"><rect class="d" width="48" height="48" rx="4"/><rect class="e" width="48" height="48" rx="4"/></g></g><g transform="translate(117.627 690.627)"><path class="f" d="M0,0H34.745V34.745H0Z"/><path class="g" d="M8,5V25.268L23.925,15.134Z" transform="translate(3.582 2.239)"/></g></g></svg>