<svg xmlns="http://www.w3.org/2000/svg" width="23" height="23" viewBox="0 0 23 23"><defs><style>.a{fill:none;}.b{fill:#535353;}</style></defs><rect class="a" width="23" height="23"/><path class="b" d="M7,19H7a43.583,43.583,0,0,1-3.5-4.3C1.9,12.447,0,9.227,0,6.65a6.445,6.445,0,0,1,2.049-4.7A7.145,7.145,0,0,1,7,0a7.145,7.145,0,0,1,4.951,1.946A6.445,6.445,0,0,1,14,6.65c0,2.576-1.9,5.8-3.5,8.045A43.583,43.583,0,0,1,7,19ZM7,4.275A2.443,2.443,0,0,0,4.5,6.65,2.443,2.443,0,0,0,7,9.025,2.443,2.443,0,0,0,9.5,6.65,2.443,2.443,0,0,0,7,4.275Z" transform="translate(5 2)"/></svg>