<svg xmlns="http://www.w3.org/2000/svg" width="32" height="32" viewBox="0 0 32 32"><defs><style>.a{fill:none;}.b{fill:#bb86fc;}</style></defs><rect class="a" width="32" height="32"/><g transform="translate(5.32 1.333)"><path class="b" d="M14.657,6.333V1L7.99,7.667l6.667,6.667V9a8,8,0,1,1-8,8H3.99A10.667,10.667,0,1,0,14.657,6.333Z" transform="translate(-3.99 -1)"/><g transform="translate(6.72 14.24)"><path class="b" d="M11.51,17.423H10.377V13.077L9.03,13.49v-.92l2.36-.84h.12v5.693Z" transform="translate(-9.03 -11.663)"/><path class="b" d="M16.133,15.093A3.713,3.713,0,0,1,16,16.187a2.4,2.4,0,0,1-.387.76,1.494,1.494,0,0,1-.6.44,2.072,2.072,0,0,1-.787.133,2.119,2.119,0,0,1-.787-.133,1.536,1.536,0,0,1-.613-.44,2.058,2.058,0,0,1-.4-.76,3.741,3.741,0,0,1-.147-1.093v-.987a3.713,3.713,0,0,1,.133-1.093,2.4,2.4,0,0,1,.387-.76,1.494,1.494,0,0,1,.6-.44,2.072,2.072,0,0,1,.787-.133,2.119,2.119,0,0,1,.787.133,1.536,1.536,0,0,1,.613.44,2.058,2.058,0,0,1,.4.76,3.741,3.741,0,0,1,.147,1.093ZM15,13.947a2.942,2.942,0,0,0-.053-.64,1.337,1.337,0,0,0-.16-.413.518.518,0,0,0-.253-.227A.928.928,0,0,0,14.2,12.6a.873.873,0,0,0-.333.067.582.582,0,0,0-.253.227,1.337,1.337,0,0,0-.16.413,2.942,2.942,0,0,0-.053.64V15.24a2.942,2.942,0,0,0,.053.64,1.429,1.429,0,0,0,.16.427.518.518,0,0,0,.253.227.928.928,0,0,0,.333.067.873.873,0,0,0,.333-.067.582.582,0,0,0,.253-.227,1.144,1.144,0,0,0,.147-.427,4.111,4.111,0,0,0,.053-.64V13.947Z" transform="translate(-7.947 -11.68)"/></g></g></svg>